<mxfile host="Electron" agent="Mozilla/5.0 (Windows NT 10.0; Win64; x64) AppleWebKit/537.36 (KHTML, like Gecko) draw.io/28.1.2 Chrome/138.0.7204.243 Electron/37.4.0 Safari/537.36" version="28.1.2">
  <diagram name="Diagrama de Secuencia - MS Pagos" id="OWulFPto2sTIsMfxDAji">
    <mxGraphModel dx="2215" dy="1455" grid="1" gridSize="10" guides="1" tooltips="1" connect="1" arrows="1" fold="1" page="1" pageScale="1" pageWidth="1654" pageHeight="1169" math="0" shadow="0">
      <root>
        <mxCell id="0" />
        <mxCell id="1" parent="0" />
        <mxCell id="EaNjdhixPd1IvRMlBm9_-1" value="DIAGRAMA DE SECUENCIA - PAGO UNIFICADO SERVICIUDAD" style="rounded=1;whiteSpace=wrap;html=1;fillColor=#e1d5e7;strokeColor=#9673a6;fontSize=18;fontStyle=1;" vertex="1" parent="1">
          <mxGeometry x="60" y="40" width="1520" height="60" as="geometry" />
        </mxCell>
        <mxCell id="EaNjdhixPd1IvRMlBm9_-2" value=":Ciudadano" style="shape=umlActor;verticalLabelPosition=bottom;verticalAlign=top;html=1;outlineConnect=0;fillColor=#dae8fc;strokeColor=#6c8ebf;" vertex="1" parent="1">
          <mxGeometry x="80" y="120" width="30" height="60" as="geometry" />
        </mxCell>
        <mxCell id="EaNjdhixPd1IvRMlBm9_-3" value=":App MÃ³vil" style="rounded=1;whiteSpace=wrap;html=1;fillColor=#f8cecc;strokeColor=#b85450;" vertex="1" parent="1">
          <mxGeometry x="180" y="120" width="100" height="60" as="geometry" />
        </mxCell>
        <mxCell id="EaNjdhixPd1IvRMlBm9_-4" value=":API Gateway" style="rounded=1;whiteSpace=wrap;html=1;fillColor=#f8cecc;strokeColor=#b85450;" vertex="1" parent="1">
          <mxGeometry x="320" y="120" width="100" height="60" as="geometry" />
        </mxCell>
        <mxCell id="EaNjdhixPd1IvRMlBm9_-5" value=":PaymentController" style="rounded=1;whiteSpace=wrap;html=1;fillColor=#fff2cc;strokeColor=#d6b656;" vertex="1" parent="1">
          <mxGeometry x="460" y="120" width="120" height="60" as="geometry" />
        </mxCell>
        <mxCell id="EaNjdhixPd1IvRMlBm9_-6" value=":PaymentService" style="rounded=1;whiteSpace=wrap;html=1;fillColor=#d5e8d4;strokeColor=#82b366;" vertex="1" parent="1">
          <mxGeometry x="620" y="120" width="120" height="60" as="geometry" />
        </mxCell>
        <mxCell id="EaNjdhixPd1IvRMlBm9_-7" value=":SagaOrchestrator" style="rounded=1;whiteSpace=wrap;html=1;fillColor=#d5e8d4;strokeColor=#82b366;" vertex="1" parent="1">
          <mxGeometry x="780" y="120" width="120" height="60" as="geometry" />
        </mxCell>
        <mxCell id="EaNjdhixPd1IvRMlBm9_-8" value=":PSEGateway" style="rounded=1;whiteSpace=wrap;html=1;fillColor=#e1d5e7;strokeColor=#9673a6;" vertex="1" parent="1">
          <mxGeometry x="940" y="120" width="100" height="60" as="geometry" />
        </mxCell>
        <mxCell id="EaNjdhixPd1IvRMlBm9_-9" value=":LegacyEnergyAdapter" style="rounded=1;whiteSpace=wrap;html=1;fillColor=#ffe6cc;strokeColor=#d79b00;" vertex="1" parent="1">
          <mxGeometry x="1080" y="120" width="140" height="60" as="geometry" />
        </mxCell>
        <mxCell id="EaNjdhixPd1IvRMlBm9_-10" value=":LegacyWaterAdapter" style="rounded=1;whiteSpace=wrap;html=1;fillColor=#ffe6cc;strokeColor=#d79b00;" vertex="1" parent="1">
          <mxGeometry x="1260" y="120" width="140" height="60" as="geometry" />
        </mxCell>
        <mxCell id="EaNjdhixPd1IvRMlBm9_-11" value=":NotificationService" style="rounded=1;whiteSpace=wrap;html=1;fillColor=#fff2cc;strokeColor=#d6b656;" vertex="1" parent="1">
          <mxGeometry x="1440" y="120" width="120" height="60" as="geometry" />
        </mxCell>
        <mxCell id="EaNjdhixPd1IvRMlBm9_-12" value="" style="endArrow=none;dashed=1;html=1;strokeColor=#666666;" edge="1" parent="1">
          <mxGeometry width="50" height="50" relative="1" as="geometry">
            <mxPoint x="95" y="200" as="sourcePoint" />
            <mxPoint x="95" y="1100" as="targetPoint" />
          </mxGeometry>
        </mxCell>
        <mxCell id="EaNjdhixPd1IvRMlBm9_-13" value="" style="endArrow=none;dashed=1;html=1;strokeColor=#666666;" edge="1" parent="1">
          <mxGeometry width="50" height="50" relative="1" as="geometry">
            <mxPoint x="230" y="200" as="sourcePoint" />
            <mxPoint x="230" y="1100" as="targetPoint" />
          </mxGeometry>
        </mxCell>
        <mxCell id="EaNjdhixPd1IvRMlBm9_-14" value="" style="endArrow=none;dashed=1;html=1;strokeColor=#666666;" edge="1" parent="1">
          <mxGeometry width="50" height="50" relative="1" as="geometry">
            <mxPoint x="370" y="200" as="sourcePoint" />
            <mxPoint x="370" y="1100" as="targetPoint" />
          </mxGeometry>
        </mxCell>
        <mxCell id="EaNjdhixPd1IvRMlBm9_-15" value="" style="endArrow=none;dashed=1;html=1;strokeColor=#666666;" edge="1" parent="1">
          <mxGeometry width="50" height="50" relative="1" as="geometry">
            <mxPoint x="520" y="200" as="sourcePoint" />
            <mxPoint x="520" y="1100" as="targetPoint" />
          </mxGeometry>
        </mxCell>
        <mxCell id="EaNjdhixPd1IvRMlBm9_-16" value="" style="endArrow=none;dashed=1;html=1;strokeColor=#666666;" edge="1" parent="1">
          <mxGeometry width="50" height="50" relative="1" as="geometry">
            <mxPoint x="680" y="200" as="sourcePoint" />
            <mxPoint x="680" y="1100" as="targetPoint" />
          </mxGeometry>
        </mxCell>
        <mxCell id="EaNjdhixPd1IvRMlBm9_-17" value="" style="endArrow=none;dashed=1;html=1;strokeColor=#666666;" edge="1" parent="1">
          <mxGeometry width="50" height="50" relative="1" as="geometry">
            <mxPoint x="840" y="200" as="sourcePoint" />
            <mxPoint x="840" y="1100" as="targetPoint" />
          </mxGeometry>
        </mxCell>
        <mxCell id="EaNjdhixPd1IvRMlBm9_-18" value="" style="endArrow=none;dashed=1;html=1;strokeColor=#666666;" edge="1" parent="1">
          <mxGeometry width="50" height="50" relative="1" as="geometry">
            <mxPoint x="990" y="200" as="sourcePoint" />
            <mxPoint x="990" y="1100" as="targetPoint" />
          </mxGeometry>
        </mxCell>
        <mxCell id="EaNjdhixPd1IvRMlBm9_-19" value="" style="endArrow=none;dashed=1;html=1;strokeColor=#666666;" edge="1" parent="1">
          <mxGeometry width="50" height="50" relative="1" as="geometry">
            <mxPoint x="1150" y="200" as="sourcePoint" />
            <mxPoint x="1150" y="1100" as="targetPoint" />
          </mxGeometry>
        </mxCell>
        <mxCell id="EaNjdhixPd1IvRMlBm9_-20" value="" style="endArrow=none;dashed=1;html=1;strokeColor=#666666;" edge="1" parent="1">
          <mxGeometry width="50" height="50" relative="1" as="geometry">
            <mxPoint x="1330" y="200" as="sourcePoint" />
            <mxPoint x="1330" y="1100" as="targetPoint" />
          </mxGeometry>
        </mxCell>
        <mxCell id="EaNjdhixPd1IvRMlBm9_-21" value="" style="endArrow=none;dashed=1;html=1;strokeColor=#666666;" edge="1" parent="1">
          <mxGeometry width="50" height="50" relative="1" as="geometry">
            <mxPoint x="1500" y="200" as="sourcePoint" />
            <mxPoint x="1500" y="1100" as="targetPoint" />
          </mxGeometry>
        </mxCell>
        <mxCell id="EaNjdhixPd1IvRMlBm9_-22" value="" style="rounded=0;whiteSpace=wrap;html=1;fillColor=#f5f5f5;strokeColor=#666666;" vertex="1" parent="1">
          <mxGeometry x="225" y="240" width="10" height="800" as="geometry" />
        </mxCell>
        <mxCell id="EaNjdhixPd1IvRMlBm9_-23" value="" style="rounded=0;whiteSpace=wrap;html=1;fillColor=#f5f5f5;strokeColor=#666666;" vertex="1" parent="1">
          <mxGeometry x="365" y="280" width="10" height="760" as="geometry" />
        </mxCell>
        <mxCell id="EaNjdhixPd1IvRMlBm9_-24" value="" style="rounded=0;whiteSpace=wrap;html=1;fillColor=#f5f5f5;strokeColor=#666666;" vertex="1" parent="1">
          <mxGeometry x="515" y="320" width="10" height="720" as="geometry" />
        </mxCell>
        <mxCell id="EaNjdhixPd1IvRMlBm9_-25" value="" style="rounded=0;whiteSpace=wrap;html=1;fillColor=#f5f5f5;strokeColor=#666666;" vertex="1" parent="1">
          <mxGeometry x="675" y="360" width="10" height="680" as="geometry" />
        </mxCell>
        <mxCell id="EaNjdhixPd1IvRMlBm9_-26" value="" style="rounded=0;whiteSpace=wrap;html=1;fillColor=#f5f5f5;strokeColor=#666666;" vertex="1" parent="1">
          <mxGeometry x="835" y="440" width="10" height="600" as="geometry" />
        </mxCell>
        <mxCell id="EaNjdhixPd1IvRMlBm9_-27" value="1: seleccionarServicios(energia, agua, telecom)" style="endArrow=classic;html=1;strokeColor=#0066CC;strokeWidth=2;" edge="1" parent="1">
          <mxGeometry width="50" height="50" relative="1" as="geometry">
            <mxPoint x="95" y="240" as="sourcePoint" />
            <mxPoint x="225" y="240" as="targetPoint" />
          </mxGeometry>
        </mxCell>
        <mxCell id="EaNjdhixPd1IvRMlBm9_-28" value="2: POST /api/v1/pagos/unificado" style="endArrow=classic;html=1;strokeColor=#0066CC;strokeWidth=2;" edge="1" parent="1">
          <mxGeometry width="50" height="50" relative="1" as="geometry">
            <mxPoint x="235" y="280" as="sourcePoint" />
            <mxPoint x="365" y="280" as="targetPoint" />
          </mxGeometry>
        </mxCell>
        <mxCell id="EaNjdhixPd1IvRMlBm9_-29" value="3: routeToPaymentService(pagoRequest)" style="endArrow=classic;html=1;strokeColor=#0066CC;strokeWidth=2;" edge="1" parent="1">
          <mxGeometry width="50" height="50" relative="1" as="geometry">
            <mxPoint x="375" y="320" as="sourcePoint" />
            <mxPoint x="515" y="320" as="targetPoint" />
          </mxGeometry>
        </mxCell>
        <mxCell id="EaNjdhixPd1IvRMlBm9_-30" value="4: procesarPagoUnificado(pagoRequest)" style="endArrow=classic;html=1;strokeColor=#0066CC;strokeWidth=2;" edge="1" parent="1">
          <mxGeometry width="50" height="50" relative="1" as="geometry">
            <mxPoint x="525" y="360" as="sourcePoint" />
            <mxPoint x="675" y="360" as="targetPoint" />
          </mxGeometry>
        </mxCell>
        <mxCell id="EaNjdhixPd1IvRMlBm9_-31" value="5: validarClienteServiCiudad(clienteId)" style="endArrow=classic;html=1;strokeColor=#669900;strokeWidth=2;labelBackgroundColor=#FFFFFF;" edge="1" parent="1">
          <mxGeometry width="50" height="50" relative="1" as="geometry">
            <mxPoint x="685" y="400" as="sourcePoint" />
            <mxPoint x="675" y="400" as="targetPoint" />
          </mxGeometry>
        </mxCell>
        <mxCell id="EaNjdhixPd1IvRMlBm9_-32" value="6: coordinarPagoDistribuido(payment)" style="endArrow=classic;html=1;strokeColor=#0066CC;strokeWidth=2;" edge="1" parent="1">
          <mxGeometry width="50" height="50" relative="1" as="geometry">
            <mxPoint x="685" y="440" as="sourcePoint" />
            <mxPoint x="835" y="440" as="targetPoint" />
          </mxGeometry>
        </mxCell>
        <mxCell id="EaNjdhixPd1IvRMlBm9_-33" value="7: procesarPago(pagoRequest)" style="endArrow=classic;html=1;strokeColor=#CC6600;strokeWidth=2;" edge="1" parent="1">
          <mxGeometry width="50" height="50" relative="1" as="geometry">
            <mxPoint x="845" y="480" as="sourcePoint" />
            <mxPoint x="985" y="480" as="targetPoint" />
          </mxGeometry>
        </mxCell>
        <mxCell id="EaNjdhixPd1IvRMlBm9_-34" value="8: pagoConfirmado(transactionId)" style="endArrow=classic;html=1;strokeColor=#CC6600;strokeWidth=2;dashed=1;" edge="1" parent="1">
          <mxGeometry width="50" height="50" relative="1" as="geometry">
            <mxPoint x="985" y="520" as="sourcePoint" />
            <mxPoint x="845" y="520" as="targetPoint" />
          </mxGeometry>
        </mxCell>
        <mxCell id="EaNjdhixPd1IvRMlBm9_-35" value="9: actualizarSaldoEnergia(pagoEnergia)" style="endArrow=classic;html=1;strokeColor=#CC0000;strokeWidth=2;" edge="1" parent="1">
          <mxGeometry width="50" height="50" relative="1" as="geometry">
            <mxPoint x="845" y="560" as="sourcePoint" />
            <mxPoint x="1145" y="560" as="targetPoint" />
          </mxGeometry>
        </mxCell>
        <mxCell id="EaNjdhixPd1IvRMlBm9_-36" value="10: saldoActualizado()" style="endArrow=classic;html=1;strokeColor=#CC0000;strokeWidth=2;dashed=1;" edge="1" parent="1">
          <mxGeometry width="50" height="50" relative="1" as="geometry">
            <mxPoint x="1145" y="600" as="sourcePoint" />
            <mxPoint x="845" y="600" as="targetPoint" />
          </mxGeometry>
        </mxCell>
        <mxCell id="EaNjdhixPd1IvRMlBm9_-37" value="11: actualizarSaldoAcueducto(pagoAgua)" style="endArrow=classic;html=1;strokeColor=#CC0000;strokeWidth=2;" edge="1" parent="1">
          <mxGeometry width="50" height="50" relative="1" as="geometry">
            <mxPoint x="845" y="640" as="sourcePoint" />
            <mxPoint x="1325" y="640" as="targetPoint" />
          </mxGeometry>
        </mxCell>
        <mxCell id="EaNjdhixPd1IvRMlBm9_-38" value="12: saldoActualizado()" style="endArrow=classic;html=1;strokeColor=#CC0000;strokeWidth=2;dashed=1;" edge="1" parent="1">
          <mxGeometry width="50" height="50" relative="1" as="geometry">
            <mxPoint x="1325" y="680" as="sourcePoint" />
            <mxPoint x="845" y="680" as="targetPoint" />
          </mxGeometry>
        </mxCell>
        <mxCell id="EaNjdhixPd1IvRMlBm9_-39" value="13: enviarNotificacion(pagoCompletado)" style="endArrow=classic;html=1;strokeColor=#9933CC;strokeWidth=2;" edge="1" parent="1">
          <mxGeometry width="50" height="50" relative="1" as="geometry">
            <mxPoint x="845" y="720" as="sourcePoint" />
            <mxPoint x="1495" y="720" as="targetPoint" />
          </mxGeometry>
        </mxCell>
        <mxCell id="EaNjdhixPd1IvRMlBm9_-40" value="14: SagaResult.SUCCESS" style="endArrow=classic;html=1;strokeColor=#0066CC;strokeWidth=2;dashed=1;" edge="1" parent="1">
          <mxGeometry width="50" height="50" relative="1" as="geometry">
            <mxPoint x="835" y="760" as="sourcePoint" />
            <mxPoint x="685" y="760" as="targetPoint" />
          </mxGeometry>
        </mxCell>
        <mxCell id="EaNjdhixPd1IvRMlBm9_-41" value="15: PaymentResponse(estado=COMPLETED)" style="endArrow=classic;html=1;strokeColor=#0066CC;strokeWidth=2;dashed=1;" edge="1" parent="1">
          <mxGeometry width="50" height="50" relative="1" as="geometry">
            <mxPoint x="675" y="800" as="sourcePoint" />
            <mxPoint x="525" y="800" as="targetPoint" />
          </mxGeometry>
        </mxCell>
        <mxCell id="EaNjdhixPd1IvRMlBm9_-42" value="16: HTTP 200 OK + PaymentResponse" style="endArrow=classic;html=1;strokeColor=#0066CC;strokeWidth=2;dashed=1;" edge="1" parent="1">
          <mxGeometry width="50" height="50" relative="1" as="geometry">
            <mxPoint x="515" y="840" as="sourcePoint" />
            <mxPoint x="375" y="840" as="targetPoint" />
          </mxGeometry>
        </mxCell>
        <mxCell id="EaNjdhixPd1IvRMlBm9_-43" value="17: Response + Payment Details" style="endArrow=classic;html=1;strokeColor=#0066CC;strokeWidth=2;dashed=1;" edge="1" parent="1">
          <mxGeometry width="50" height="50" relative="1" as="geometry">
            <mxPoint x="365" y="880" as="sourcePoint" />
            <mxPoint x="235" y="880" as="targetPoint" />
          </mxGeometry>
        </mxCell>
        <mxCell id="EaNjdhixPd1IvRMlBm9_-44" value="18: mostrarConfirmacionPago()" style="endArrow=classic;html=1;strokeColor=#0066CC;strokeWidth=2;dashed=1;" edge="1" parent="1">
          <mxGeometry width="50" height="50" relative="1" as="geometry">
            <mxPoint x="225" y="920" as="sourcePoint" />
            <mxPoint x="105" y="920" as="targetPoint" />
          </mxGeometry>
        </mxCell>
        <mxCell id="EaNjdhixPd1IvRMlBm9_-45" value="ALT: En caso de error en pasos 9-12&#xa;&#xa;- Saga ejecuta compensaciones&#xa;- Revierte pago en PSE&#xa;- Notifica error al usuario&#xa;- Retorna SagaResult.FAILED" style="rounded=1;whiteSpace=wrap;html=1;fillColor=#f8cecc;strokeColor=#b85450;align=left;verticalAlign=top;" vertex="1" parent="1">
          <mxGeometry x="1080" y="760" width="240" height="120" as="geometry" />
        </mxCell>
        <mxCell id="EaNjdhixPd1IvRMlBm9_-46" value="PATRONES IMPLEMENTADOS" style="rounded=1;whiteSpace=wrap;html=1;fillColor=#fff2cc;strokeColor=#d6b656;fontSize=14;fontStyle=1;" vertex="1" parent="1">
          <mxGeometry x="80" y="990" width="200" height="30" as="geometry" />
        </mxCell>
        <mxCell id="EaNjdhixPd1IvRMlBm9_-47" value="â¢ SAGA PATTERN: CoordinaciÃ³n de transacciones distribuidas (pasos 6-14)&#xa;â¢ CIRCUIT BREAKER: ProtecciÃ³n en llamadas a sistemas legacy (pasos 9,11)&#xa;â¢ ADAPTER PATTERN: IntegraciÃ³n con mainframe y Oracle (adaptadores)&#xa;â¢ ASYNCHRONOUS MESSAGING: Notificaciones via Kafka (paso 13)&#xa;â¢ COMPENSATION: Rollback automÃ¡tico en caso de fallos&#xa;â¢ IDEMPOTENCY: GarantÃ­a de procesamiento Ãºnico por transacciÃ³n" style="rounded=1;whiteSpace=wrap;html=1;fillColor=#fff2cc;strokeColor=#d6b656;align=left;verticalAlign=top;" vertex="1" parent="1">
          <mxGeometry x="80" y="1030" width="600" height="100" as="geometry" />
        </mxCell>
        <mxCell id="EaNjdhixPd1IvRMlBm9_-48" value="RESTRICCIONES DE TIEMPO" style="rounded=1;whiteSpace=wrap;html=1;fillColor=#e1d5e7;strokeColor=#9673a6;fontSize=14;fontStyle=1;" vertex="1" parent="1">
          <mxGeometry x="720" y="990" width="200" height="30" as="geometry" />
        </mxCell>
        <mxCell id="EaNjdhixPd1IvRMlBm9_-49" value="â¢ Timeout total: 30 segundos&#xa;â¢ PSE Gateway: 15 segundos mÃ¡ximo&#xa;â¢ Legacy Energy: 30 segundos (Circuit Breaker)&#xa;â¢ Legacy Water: 30 segundos (Circuit Breaker)&#xa;â¢ Notificaciones: AsÃ­ncrono (no bloquea)&#xa;â¢ Retry: 3 intentos con backoff exponencial" style="rounded=1;whiteSpace=wrap;html=1;fillColor=#e1d5e7;strokeColor=#9673a6;align=left;verticalAlign=top;" vertex="1" parent="1">
          <mxGeometry x="720" y="1030" width="320" height="100" as="geometry" />
        </mxCell>
      </root>
    </mxGraphModel>
  </diagram>
</mxfile>
